HIERARCHY
ROOT Hips
{
    OFFSET 0.000000 0.000000 0.000000
    CHANNELS 6 Xposition Yposition Zposition Zrotation Xrotation Yrotation
    JOINT Spine
    {
        OFFSET -0.000000 7.979263 0.000000
        CHANNELS 3 Zrotation Xrotation Yrotation
        JOINT Spine1
        {
            OFFSET -0.000000 24.719021 0.000000
            CHANNELS 3 Zrotation Xrotation Yrotation
            JOINT Neck
            {
                OFFSET -0.000000 24.617504 2.237955
                CHANNELS 3 Zrotation Xrotation Yrotation
                JOINT Head
                {
                    OFFSET -0.000000 13.623132 -1.946162
                    CHANNELS 3 Zrotation Xrotation Yrotation
                    End Site
                    {
                        OFFSET -0.000000 24.327021 0.000000
                    }
                }
            }
            JOINT LeftShoulder
            {
                OFFSET 3.885773 23.018444 -0.302444
                CHANNELS 3 Zrotation Xrotation Yrotation
                JOINT LeftArm
                {
                    OFFSET 10.447750 0.000000 0.000000
                    CHANNELS 3 Zrotation Xrotation Yrotation
                    JOINT LeftForeArm
                    {
                        OFFSET 29.090096 0.000000 0.000000
                        CHANNELS 3 Zrotation Xrotation Yrotation
                        JOINT LeftHand
                        {
                            OFFSET 28.893339 0.000000 0.000000
                            CHANNELS 3 Zrotation Xrotation Yrotation
                            End Site
                            {
                                OFFSET 14.596213 0.000000 0.000000
                            }
                        }
                    }
                }
            }
            JOINT RightShoulder
            {
                OFFSET -3.864586 23.018444 -0.302444
                CHANNELS 3 Zrotation Xrotation Yrotation
                JOINT RightArm
                {
                    OFFSET -10.447750 0.000000 0.000000
                    CHANNELS 3 Zrotation Xrotation Yrotation
                    JOINT RightForeArm
                    {
                        OFFSET -29.090096 0.000000 0.000000
                        CHANNELS 3 Zrotation Xrotation Yrotation
                        JOINT RightHand
                        {
                            OFFSET -28.893339 0.000000 0.000000
                            CHANNELS 3 Zrotation Xrotation Yrotation
                            End Site
                            {
                                OFFSET -14.596213 0.000000 0.000000
                            }
                        }
                    }
                }
            }
        }
    }
    JOINT LeftUpLeg
    {
        OFFSET 9.730808 0.000000 0.000000
        CHANNELS 3 Zrotation Xrotation Yrotation
        JOINT LeftLeg
        {
            OFFSET -0.000000 -34.800129 0.000000
            CHANNELS 3 Zrotation Xrotation Yrotation
            JOINT LeftFoot
            {
                OFFSET -0.000000 -44.597416 0.000000
                CHANNELS 3 Zrotation Xrotation Yrotation
                JOINT LeftToeBase
                {
                    OFFSET -0.000000 -6.325025 14.596213
                    CHANNELS 3 Zrotation Xrotation Yrotation
                    End Site
                    {
                        OFFSET -0.000000 0.000000 3.892323
                    }
                }
            }
        }
    }
    JOINT RightUpLeg
    {
        OFFSET -9.730808 0.000000 0.000000
        CHANNELS 3 Zrotation Xrotation Yrotation
        JOINT RightLeg
        {
            OFFSET -0.000000 -34.800129 0.000000
            CHANNELS 3 Zrotation Xrotation Yrotation
            JOINT RightFoot
            {
                OFFSET -0.000000 -44.597416 0.000000
                CHANNELS 3 Zrotation Xrotation Yrotation
                JOINT RightToeBase
                {
                    OFFSET -0.000000 -6.325025 14.596213
                    CHANNELS 3 Zrotation Xrotation Yrotation
                    End Site
                    {
                        OFFSET -0.000000 0.000000 3.892323
                    }
                }
            }
        }
    }
}
MOTION
Frames:    5
Frame Time:    0.008333
-47.708458    84.031433    40.112720    -13.843295    -6.468968    101.846329    0.265810    -11.755874    -4.919440    4.339544    -6.297828    -4.707902    10.649173    23.676216    -3.901757    -6.124640    -9.648775    -4.670001    10.201886    5.383551    -22.874018    -66.426582    51.215744    -20.920168    7.679349    -9.523072    -26.410038    -2.849657    -7.637105    -4.146504    -2.747126    7.110855    -6.759384    87.109230    51.229332    -16.080912    6.120242    -9.194788    10.021909    8.255494    -9.768098    -0.610222    8.617432    6.196077    -1.192609    0.502499    15.899646    6.453904    -13.523912    20.653122    -11.042454    0.000000    0.000000    0.000000    -0.206633    -38.542667    2.445586    3.900561    16.034306    -14.352988    1.490524    8.923725    -4.009978    0.000000    0.000000    0.000000    
-46.583481    84.181908    40.168514    -13.704924    -6.530821    101.505318    0.440347    -11.548625    -4.701931    4.689893    -6.687884    -4.472238    11.073372    24.270834    -3.953530    -6.789345    -10.093669    -4.802903    9.816498    5.840491    -23.206148    -66.470558    51.061970    -20.485271    7.587070    -9.962117    -26.034594    -2.010574    -8.166206    -3.559434    -2.694931    7.391797    -6.424979    86.560005    51.774364    -15.626897    6.040555    -9.283515    9.608921    7.515056    -9.855007    -1.085746    8.768868    5.361134    -1.407103    0.492317    18.211498    7.614813    -12.825389    23.537245    -11.242765    0.000000    0.000000    0.000000    0.429170    -38.013023    1.594977    3.499178    16.586823    -13.273198    1.481846    8.601242    -3.671968    0.000000    0.000000    0.000000    
-45.500557    84.306740    40.227604    -13.633752    -6.583899    101.196999    0.483314    -11.450372    -4.513309    5.219401    -6.856007    -4.248853    11.041072    24.531055    -3.945842    -6.939933    -10.318009    -4.816437    9.377713    5.813058    -23.340202    -66.849831    50.950272    -19.850761    7.246836    -10.148935    -25.641489    -1.253271    -8.490558    -2.707432    -2.772158    7.320861    -6.333306    85.873116    52.184883    -15.200553    6.007392    -9.361702    9.303716    7.304954    -9.942540    -1.564052    8.967345    4.258013    -2.076088    0.142076    20.770475    8.764740    -12.531598    25.801453    -10.948771    0.000000    0.000000    0.000000    0.998856    -37.539589    0.678554    3.081889    17.103302    -11.986688    0.923309    8.324805    -3.165700    0.000000    0.000000    0.000000    
-44.398804    84.429070    40.301262    -13.538993    -6.602815    100.875809    0.560279    -11.424256    -4.389952    5.521692    -6.940650    -4.110826    10.941182    24.869719    -3.976599    -6.784581    -10.430818    -4.790157    9.316251    5.966125    -23.558430    -67.137680    51.317650    -19.311823    7.311805    -10.822885    -25.190269    -0.314673    -9.204722    -2.801356    -2.527590    7.301795    -5.561761    85.617569    52.668179    -15.343874    5.567649    -9.613720    9.222935    7.308026    -10.178616    -1.940470    9.109859    3.033455    -2.135308    -0.091868    23.469790    9.897670    -11.887195    28.172985    -10.954864    0.000000    0.000000    0.000000    1.739919    -36.851398    -0.065137    2.395243    17.325054    -10.858401    0.873188    7.786139    -2.927927    0.000000    0.000000    0.000000    
-43.339653    84.543213    40.353741    -13.432527    -6.601357    100.616333    0.674284    -11.272775    -4.181278    5.760510    -7.116664    -3.889251    11.275511    24.959703    -4.025639    -7.216275    -10.366733    -4.899063    9.287629    6.209653    -23.845751    -67.197090    51.257996    -19.106943    6.962709    -11.225924    -24.834240    0.671706    -9.729725    -2.201105    -2.455186    7.301899    -5.632761    84.950623    53.422935    -14.941257    5.397025    -9.099576    9.279112    7.167050    -9.707807    -2.844162    9.152960    1.712337    -2.474433    -0.222268    26.466877    10.309793    -11.813426    29.582743    -10.172864    0.000000    0.000000    0.000000    2.236127    -35.984245    -0.015845    2.202505    17.219793    -10.547801    0.728086    7.204673    -2.771466    0.000000    0.000000    0.000000    
